# xmcd
#
# Track frame offsets: 
#        150
#        21757
#        43747
#        62727
#        86480
#        113100
#        133780
#        152500
#        181225
#        197522
#        211777
#
# Disc length: 3208 seconds
#
# Revision: 1
# Processed by: cddbd v1.5.2PL0 Copyright (c) Steve Scherf et al.
# Submitted via: ExactAudioCopy v0.99pb4
#
DISCID=8b0c860b
DTITLE=Dave Hole - Rough Diamond
DYEAR=2007
DGENRE=Blues
TTITLE0=Rough Diamond Child
TTITLE1=Can't Stop Loving You
TTITLE2=Vintage Wine
TTITLE3=Yours For a Song
TTITLE4=White Trash Girl
TTITLE5=Since I Met You Baby
TTITLE6=I'll Get To You
TTITLE7=Something Inside Of Me
TTITLE8=Rambling On My Mind
TTITLE9=Think It Over
TTITLE10=I'm a King Bee
EXTD=
EXTT0=
EXTT1=
EXTT2=
EXTT3=
EXTT4=
EXTT5=
EXTT6=
EXTT7=
EXTT8=
EXTT9=
EXTT10=
PLAYORDER=
